<svg width="416" height="42" viewBox="0 0 416 42" fill="none" xmlns="http://www.w3.org/2000/svg">
  <path d="M61.6129 11.79H63.756V24.6053C63.756 25.1179 63.756 25.3742 63.9941 25.6305C64.2322 25.8868 64.4703 25.8868 64.9465 25.8868C65.1846 25.8868 65.1846 25.8868 65.4227 25.8868C65.6609 25.8868 65.899 25.8868 65.899 25.6305L66.1371 27.4247C65.899 27.681 65.4227 27.681 64.9465 27.9373C64.4703 27.9373 63.9941 28.1936 63.756 28.1936C63.0416 28.1936 62.3273 27.9373 61.8511 27.4247C61.3748 26.9121 61.1367 26.3994 61.1367 25.3742V11.79H61.6129Z" fill="#15172A"/>
  <path d="M72.5643 27.9375C71.6119 27.9375 70.8975 27.6812 70.1832 27.4249C69.4688 27.1686 68.9926 26.656 68.5164 26.1434C68.0402 25.6308 67.5639 24.8618 67.3258 24.3492C67.0877 23.5803 66.8496 22.8114 66.8496 22.0425C66.8496 21.2736 67.0877 20.5047 67.3258 19.7357C67.5639 18.9668 68.0402 18.4542 68.5164 17.9416C68.9926 17.429 69.4688 16.9164 70.1832 16.6601C70.8975 16.4038 71.6119 16.1475 72.5643 16.1475C73.2786 16.1475 74.2311 16.4038 74.9454 16.6601C75.4217 16.9164 76.136 17.429 76.6122 17.9416C77.0884 18.4542 77.5647 19.2231 77.8028 19.7357C78.0409 20.5047 78.279 21.2736 78.279 22.0425C78.279 22.8114 78.0409 23.5803 77.8028 24.3492C77.5647 25.1181 77.0884 25.6308 76.6122 26.1434C76.136 26.656 75.6598 27.1686 74.9454 27.4249C74.2311 27.9375 73.2786 27.9375 72.5643 27.9375ZM69.4688 22.0425C69.4688 22.5551 69.4688 23.0677 69.707 23.5803C69.9451 24.0929 70.1832 24.3492 70.4213 24.8618C70.6594 25.1181 71.1356 25.3745 71.3737 25.6308C71.85 25.8871 72.0881 25.8871 72.5643 25.8871C73.0405 25.8871 73.5168 25.8871 73.7549 25.6308C74.2311 25.3745 74.4692 25.1181 74.7073 24.8618C74.9454 24.6055 75.1835 24.0929 75.4217 23.5803C75.6598 23.0677 75.6598 22.5551 75.6598 22.0425C75.6598 21.5299 75.6598 21.0173 75.4217 20.5047C75.1835 19.992 74.9454 19.7357 74.7073 19.2231C74.4692 18.9668 73.993 18.7105 73.7549 18.4542C73.2786 18.1979 73.0405 18.1979 72.5643 18.1979C72.0881 18.1979 71.6119 18.1979 71.3737 18.4542C70.8975 18.7105 70.6594 18.9668 70.4213 19.2231C70.1832 19.4794 69.707 19.992 69.707 20.5047C69.4688 21.0173 69.4688 21.5299 69.4688 22.0425Z" fill="#15172A"/>
  <path d="M84.9471 27.9375C83.9947 27.9375 83.2803 27.6812 82.566 27.4249C81.8517 27.1686 81.3754 26.656 80.8992 26.1434C80.423 25.6308 79.9468 24.8618 79.7086 24.3492C79.4705 23.5803 79.2324 22.8114 79.2324 22.0425C79.2324 21.2736 79.4705 20.5047 79.7086 19.7357C79.9468 18.9668 80.423 18.4542 80.8992 17.9416C81.3754 17.429 81.8517 16.9164 82.566 16.6601C83.2803 16.4038 83.9947 16.1475 84.9471 16.1475C85.6615 16.1475 86.6139 16.4038 87.3283 16.6601C88.0426 16.9164 88.5188 17.429 88.995 17.9416C89.4713 18.4542 89.9475 19.2231 90.1856 19.7357C90.1856 20.5047 90.4237 21.2736 90.4237 22.0425C90.4237 22.8114 90.1856 23.5803 89.9475 24.3492C89.7094 25.1181 89.2332 25.6308 88.7569 26.1434C88.2807 26.656 87.8045 27.1686 87.0901 27.4249C86.3758 27.9375 85.6615 27.9375 84.9471 27.9375ZM81.6135 22.0425C81.6135 22.5551 81.6136 23.0677 81.8517 23.5803C82.0898 24.0929 82.3279 24.3492 82.566 24.8618C82.8041 25.1181 83.2803 25.3745 83.5184 25.6308C83.9947 25.8871 84.2328 25.8871 84.709 25.8871C85.1852 25.8871 85.6615 25.8871 85.8996 25.6308C86.3758 25.3745 86.6139 25.1181 86.852 24.8618C87.0901 24.6055 87.3283 24.0929 87.5664 23.5803C88.0426 23.0677 88.0426 22.5551 88.0426 22.0425C88.0426 21.5299 88.0426 21.0173 87.8045 20.5047C87.5664 19.992 87.3282 19.7357 87.0901 19.2231C86.852 18.9668 86.3758 18.7105 86.1377 18.4542C85.6615 18.1979 85.4234 18.1979 84.9471 18.1979C84.4709 18.1979 83.9947 18.1979 83.7566 18.4542C83.5185 18.7105 83.0422 18.9668 82.8041 19.2231C82.566 19.4794 82.3279 19.992 82.0898 20.5047C81.8517 21.0173 81.6135 21.5299 81.6135 22.0425Z" fill="#15172A"/>
  <path d="M98.5191 27.9371C97.5666 27.9371 96.8523 27.6808 96.1379 27.1681C95.4236 26.6555 94.9474 26.1429 94.4711 25.374V32.2943H92.3281V16.4033H94.233V18.4538C94.7092 17.6848 95.1855 17.1722 95.8998 16.9159C96.6142 16.4033 97.3285 16.4033 98.0428 16.4033C98.7572 16.4033 99.4715 16.6596 100.186 16.9159C100.9 17.1722 101.376 17.6848 101.853 18.1975C102.329 18.7101 102.567 19.479 102.805 19.9916C103.043 20.5042 103.281 21.5294 103.281 22.2983C103.281 23.0673 103.281 23.8362 103.043 24.6051C102.805 25.374 102.329 25.6303 101.853 26.3992C101.376 26.9118 100.9 27.4245 100.424 27.6808C99.9477 27.9371 99.2334 27.9371 98.5191 27.9371ZM97.8047 25.8866C98.2809 25.8866 98.7572 25.8866 98.9953 25.6303C99.4715 25.374 99.7096 25.1177 99.9477 24.8614C100.186 24.6051 100.424 24.0925 100.662 23.5799C100.9 23.0673 100.9 22.5547 100.9 22.042C100.9 21.5294 100.9 21.0168 100.662 20.5042C100.424 19.9916 100.186 19.7353 99.9477 19.2227C99.7096 18.7101 99.2334 18.7101 98.9953 18.4538C98.7572 18.1975 98.0428 18.1975 97.5666 18.1975C97.3285 18.1975 97.0904 18.1975 96.6141 18.4538C96.1379 18.7101 95.8998 18.7101 95.6617 18.9664C95.4236 19.2227 95.1855 19.479 94.9474 19.7353C94.7093 19.9916 94.7093 20.2479 94.4711 20.5042V23.5799C94.7093 23.8362 94.7093 24.3488 94.9474 24.6051C95.1855 24.8614 95.4236 25.1177 95.6617 25.374C95.8998 25.6303 96.1379 25.8866 96.6141 25.8866C97.0904 25.8866 97.5666 25.8866 97.8047 25.8866Z" fill="#15172A"/>
  <path d="M109.235 27.9375C108.282 27.9375 107.568 27.6812 106.616 27.4249C105.663 27.1686 104.949 26.656 104.473 26.1434L105.425 24.6055C106.139 25.1181 106.616 25.3745 107.33 25.6308C108.044 25.8871 108.521 26.1434 109.235 26.1434C109.949 26.1434 110.425 25.8871 110.902 25.6308C111.378 25.3745 111.378 24.8618 111.378 24.3492C111.378 23.8366 111.14 23.5803 110.664 23.324C110.187 23.324 109.473 23.0677 108.521 22.8114C107.806 22.5551 107.33 22.5551 106.854 22.2988C106.378 22.0425 105.901 22.0425 105.663 21.7862C105.425 21.5299 105.187 21.2736 104.949 21.0173C104.711 20.761 104.711 20.2483 104.711 19.992C104.711 19.4794 104.711 18.9668 104.949 18.4542C105.187 17.9416 105.425 17.6853 105.901 17.1727C106.378 16.9164 106.616 16.6601 107.33 16.4038C107.806 16.1475 108.282 16.1475 108.997 16.1475C109.711 16.1475 110.664 16.4038 111.14 16.6601C111.854 16.9164 112.568 17.429 113.045 17.6853L112.092 19.2231C111.14 18.4542 109.949 17.9416 108.997 17.9416C108.521 17.9416 108.044 18.1979 107.568 18.4542C107.092 18.4542 107.092 18.9668 107.092 19.4794C107.092 19.7357 107.092 19.992 107.33 19.992C107.33 20.2483 107.568 20.2483 107.806 20.5047C108.044 20.5047 108.282 20.761 108.521 20.761C108.759 20.761 109.235 21.0173 109.711 21.0173C110.425 21.2736 111.14 21.2736 111.616 21.5299C112.092 21.7862 112.568 22.0425 112.807 22.2988C113.045 22.5551 113.521 22.8114 113.521 23.324C113.759 23.5803 113.759 24.0929 113.759 24.6055C113.759 25.6308 113.283 26.656 112.568 27.1686C111.616 27.6812 110.425 27.9375 109.235 27.9375Z" fill="#15172A"/>
  <path d="M121.378 27.1685C121.14 27.4248 120.664 27.4248 120.188 27.6811C119.711 27.9374 119.235 27.9374 118.521 27.9374C118.283 27.9374 117.806 27.9374 117.568 27.6811C117.33 27.6811 117.092 27.4248 116.854 27.1685C116.616 26.9122 116.378 26.6559 116.378 26.3996C116.14 26.1433 116.14 25.6307 116.14 25.118V18.1978H114.711V16.4037H116.14V12.5591H118.283V16.4037H120.664V18.1978H118.283V24.6054C118.283 25.118 118.521 25.3744 118.759 25.3744C118.997 25.6307 119.235 25.6307 119.473 25.6307C119.711 25.6307 120.188 25.6307 120.426 25.3744C120.664 25.3744 120.902 25.118 121.14 25.118L121.378 27.1685Z" fill="#15172A"/>
  <path d="M126.378 27.9371C125.188 27.9371 124.473 27.4244 123.759 26.6555C123.283 25.8866 122.807 24.6051 122.807 23.0673V16.4033H124.95V23.0673C124.95 25.1177 125.664 26.1429 127.093 26.1429C127.807 26.1429 128.283 25.8866 128.998 25.6303C129.474 25.1177 129.95 24.6051 130.426 23.8362V16.4033H132.569V25.1177C132.569 25.374 132.569 25.6303 132.807 25.6303C132.807 25.6303 133.045 25.8866 133.284 25.8866V27.9371C133.045 27.9371 132.807 27.9371 132.807 27.9371C132.569 27.9371 132.569 27.9371 132.331 27.9371C131.855 27.9371 131.617 27.9371 131.379 27.6808C131.141 27.4245 130.902 27.1681 130.902 26.6555V25.6303C130.426 26.3992 129.712 27.1681 128.998 27.4244C128.045 27.9371 127.093 27.9371 126.378 27.9371Z" fill="#15172A"/>
  <path d="M139.951 27.9373C139.237 27.9373 138.523 27.681 138.046 27.4247C137.332 27.1684 136.856 26.6558 136.38 26.1431C135.665 25.6305 135.427 25.1179 135.189 24.349C134.951 23.5801 134.713 22.8112 134.713 22.0423C134.713 21.2733 134.713 20.5044 135.189 19.7355C135.427 18.9666 135.665 18.454 136.142 17.9414C136.618 17.4288 137.094 16.9161 137.57 16.6598C138.046 16.4035 138.761 16.1472 139.475 16.1472C140.428 16.1472 141.142 16.4035 141.856 16.9161C142.571 17.4288 143.047 17.9414 143.285 18.7103V11.79H145.428V25.1179C145.428 25.3742 145.428 25.6305 145.666 25.6305C145.666 25.6305 145.904 25.8868 146.142 25.8868V27.9373C145.904 27.9373 145.666 27.9373 145.666 27.9373C145.428 27.9373 145.428 27.9373 145.19 27.9373C144.714 27.9373 144.476 27.9373 143.999 27.681C143.761 27.4247 143.523 27.1684 143.523 26.6558V25.8868C143.047 26.6558 142.571 27.1684 141.856 27.681C141.38 27.9373 140.666 27.9373 139.951 27.9373ZM140.428 25.8868C140.666 25.8868 141.142 25.8868 141.38 25.6305C141.618 25.6305 142.094 25.3742 142.332 25.1179C142.571 24.8616 142.809 24.6053 143.047 24.349C143.285 24.0927 143.285 23.8364 143.523 23.3238V20.7607C143.285 20.5044 143.285 19.9918 143.047 19.7355C142.809 19.4792 142.571 19.2229 142.332 18.9666C142.094 18.7103 141.856 18.454 141.38 18.454C141.142 18.454 140.666 18.1977 140.428 18.1977C139.951 18.1977 139.475 18.1977 139.237 18.454C138.999 18.7103 138.285 18.9666 138.046 19.4792C137.808 19.7355 137.57 20.2481 137.332 20.7607C137.094 21.2733 137.094 21.7859 137.094 22.2986C137.094 22.8112 137.094 23.3238 137.332 23.8364C137.57 24.349 137.808 24.6053 138.046 25.1179C138.285 25.3742 138.761 25.6305 138.999 25.8868C139.475 25.8868 139.951 25.8868 140.428 25.8868Z" fill="#15172A"/>
  <path d="M148.523 14.3531V11.79H150.666V14.3531H148.523ZM148.523 27.9373V16.4035H150.666V27.9373H148.523Z" fill="#15172A"/>
  <path d="M158.287 27.9375C157.335 27.9375 156.62 27.6812 155.906 27.4249C155.192 27.1686 154.715 26.656 154.239 26.1434C153.763 25.6308 153.287 24.8618 153.049 24.3492C152.81 23.5803 152.572 22.8114 152.572 22.0425C152.572 21.2736 152.81 20.5047 153.049 19.7357C153.287 18.9668 153.763 18.4542 154.239 17.9416C154.715 17.429 155.192 16.9164 155.906 16.6601C156.62 16.4038 157.335 16.1475 158.287 16.1475C159.001 16.1475 159.954 16.4038 160.668 16.6601C161.144 16.9164 161.859 17.429 162.335 17.9416C162.811 18.4542 163.287 19.2231 163.525 19.7357C163.764 20.5047 164.002 21.2736 164.002 22.0425C164.002 22.8114 163.764 23.5803 163.525 24.3492C163.287 25.1181 162.811 25.6308 162.335 26.1434C161.859 26.656 161.382 27.1686 160.668 27.4249C159.954 27.9375 159.239 27.9375 158.287 27.9375ZM155.191 22.0425C155.191 22.5551 155.192 23.0677 155.43 23.5803C155.668 24.0929 155.906 24.3492 156.144 24.8618C156.382 25.3745 156.62 25.3745 157.096 25.6308C157.573 25.8871 157.811 25.8871 158.287 25.8871C158.763 25.8871 159.239 25.8871 159.478 25.6308C159.954 25.3745 160.192 25.1181 160.43 24.8618C160.668 24.6055 160.906 24.0929 161.144 23.5803C161.382 23.0677 161.382 22.5551 161.382 22.0425C161.382 21.5299 161.382 21.0173 161.144 20.5047C160.906 19.992 160.668 19.7357 160.43 19.2231C160.192 18.9668 159.716 18.7105 159.478 18.4542C159.001 18.1979 158.763 18.1979 158.287 18.1979C157.811 18.1979 157.335 18.1979 157.096 18.4542C156.858 18.7105 156.382 18.9668 156.144 19.2231C155.906 19.4794 155.668 19.992 155.43 20.5047C155.192 21.0173 155.191 21.5299 155.191 22.0425Z" fill="#15172A"/>
  <path d="M23.9895 7.94546C23.9895 6.92024 23.037 5.89502 22.0846 5.89502C21.1321 5.89502 20.1797 6.92024 20.1797 7.94546C20.1797 8.97068 21.1321 9.99591 22.0846 9.99591C23.037 9.99591 23.7514 8.97068 23.9895 7.94546Z" fill="#FF2853"/>
  <path d="M41.3721 0H19.2276C18.9895 0 18.7514 0 18.5133 0.256305L0.178584 18.7103C-0.0595281 19.2229 -0.0595281 19.7355 0.178584 20.2481L10.6555 32.0382C11.1318 32.5508 11.608 32.5508 12.0842 32.0382L14.7034 29.2188C15.1797 28.7062 15.1797 28.1936 14.7034 27.681L8.51252 20.5044C8.27441 19.9918 8.27441 19.4792 8.51252 18.9666L18.5133 8.97069C18.5133 8.71438 18.2751 8.20177 18.2751 7.94547C18.2751 5.89502 19.9419 4.10089 21.8468 4.35719C23.7517 4.35719 25.4185 6.15133 25.1804 8.20177C25.1804 10.2522 23.5136 12.0464 21.6087 11.79C21.3706 11.5337 20.8944 11.5337 20.4182 11.2774C20.4182 11.2774 20.4182 11.5337 20.18 11.5337L12.3223 19.2229C11.8461 19.4792 11.8461 20.2481 12.3223 20.5044L16.6083 25.6305C17.0846 26.1432 17.5608 26.1432 18.037 25.6305L42.0864 1.79414C42.8007 1.28153 42.3245 0 41.3721 0Z" fill="#FF2853"/>
  <path d="M27.084 33.8322C27.084 34.8574 28.0364 35.8826 28.9889 35.8826C29.9413 35.8826 30.8938 34.8574 30.8938 33.8322C30.8938 32.807 29.9413 31.7817 28.9889 31.7817C28.0364 31.7817 27.084 32.807 27.084 33.8322Z" fill="#FF2853"/>
  <path d="M9.70281 41.7776H31.8473C32.0854 41.7776 32.3235 41.7776 32.5616 41.5213L50.8963 23.0673C51.3725 22.5547 51.3725 22.0421 50.8963 21.5295L40.4193 9.73944C39.9431 9.22683 39.4669 9.22683 38.9907 9.73944L36.3714 12.5588C35.8952 13.0714 35.8952 13.584 36.3714 14.0966L42.5623 21.5295C42.8005 22.0421 42.8005 22.5547 42.5623 23.0673L32.5616 33.0632C32.5616 33.3195 32.7997 33.8321 32.7997 34.0885C32.7997 36.1389 31.1329 37.933 29.228 37.6767C27.3231 37.6767 25.6563 35.8826 25.8945 33.8321C26.1326 31.7817 27.5612 29.9876 29.4661 30.2439C29.9424 30.2439 30.4186 30.5002 30.8948 30.5002C30.8948 30.5002 30.8948 30.2439 31.1329 30.2439L38.9907 22.5547C39.4669 22.0421 39.4669 21.5295 38.9907 21.0169L34.7046 15.8908C34.2284 15.3782 33.7522 15.3782 33.276 15.8908L8.98847 39.9835C8.27413 40.4961 8.75036 41.7776 9.70281 41.7776Z" fill="#FF2853"/>
  <path d="M180.5 5.2002V34.2002" stroke="#939599" stroke-width="2"/>
  <path d="M196.982 18.9082H201.868V20.4482H196.982V18.9082ZM197.136 24.2002H195.316V14.4002H202.47V15.9262H197.136V24.2002ZM203.925 24.2002V16.7242H205.591V18.7822L205.395 18.1802C205.619 17.6762 205.969 17.2935 206.445 17.0322C206.931 16.7709 207.533 16.6402 208.251 16.6402V18.3062C208.177 18.2875 208.107 18.2782 208.041 18.2782C207.976 18.2689 207.911 18.2642 207.845 18.2642C207.183 18.2642 206.655 18.4602 206.263 18.8522C205.871 19.2349 205.675 19.8089 205.675 20.5742V24.2002H203.925ZM213.028 24.2982C212.262 24.2982 211.581 24.1349 210.984 23.8082C210.386 23.4722 209.915 23.0149 209.57 22.4362C209.224 21.8575 209.052 21.1995 209.052 20.4622C209.052 19.7155 209.224 19.0575 209.57 18.4882C209.915 17.9095 210.386 17.4569 210.984 17.1302C211.581 16.8035 212.262 16.6402 213.028 16.6402C213.802 16.6402 214.488 16.8035 215.086 17.1302C215.692 17.4569 216.164 17.9049 216.5 18.4742C216.845 19.0435 217.018 19.7062 217.018 20.4622C217.018 21.1995 216.845 21.8575 216.5 22.4362C216.164 23.0149 215.692 23.4722 215.086 23.8082C214.488 24.1349 213.802 24.2982 213.028 24.2982ZM213.028 22.8002C213.457 22.8002 213.84 22.7069 214.176 22.5202C214.512 22.3335 214.773 22.0629 214.96 21.7082C215.156 21.3535 215.254 20.9382 215.254 20.4622C215.254 19.9769 215.156 19.5615 214.96 19.2162C214.773 18.8615 214.512 18.5909 214.176 18.4042C213.84 18.2175 213.462 18.1242 213.042 18.1242C212.612 18.1242 212.23 18.2175 211.894 18.4042C211.567 18.5909 211.306 18.8615 211.11 19.2162C210.914 19.5615 210.816 19.9769 210.816 20.4622C210.816 20.9382 210.914 21.3535 211.11 21.7082C211.306 22.0629 211.567 22.3335 211.894 22.5202C212.23 22.7069 212.608 22.8002 213.028 22.8002ZM222.933 16.6402C223.53 16.6402 224.062 16.7569 224.529 16.9902C225.005 17.2235 225.378 17.5829 225.649 18.0682C225.92 18.5442 226.055 19.1602 226.055 19.9162V24.2002H224.305V20.1402C224.305 19.4775 224.146 18.9829 223.829 18.6562C223.521 18.3295 223.087 18.1662 222.527 18.1662C222.116 18.1662 221.752 18.2502 221.435 18.4182C221.118 18.5862 220.87 18.8382 220.693 19.1742C220.525 19.5009 220.441 19.9162 220.441 20.4202V24.2002H218.691V16.7242H220.357V18.7402L220.063 18.1242C220.324 17.6482 220.702 17.2842 221.197 17.0322C221.701 16.7709 222.28 16.6402 222.933 16.6402ZM231.089 24.2982C230.268 24.2982 229.633 24.0882 229.185 23.6682C228.737 23.2389 228.513 22.6089 228.513 21.7782V15.0722H230.263V21.7362C230.263 22.0909 230.352 22.3662 230.529 22.5622C230.716 22.7582 230.972 22.8562 231.299 22.8562C231.691 22.8562 232.018 22.7535 232.279 22.5482L232.769 23.7942C232.564 23.9622 232.312 24.0882 232.013 24.1722C231.714 24.2562 231.406 24.2982 231.089 24.2982ZM227.281 18.1802V16.7802H232.265V18.1802H227.281ZM237.476 24.2982C236.646 24.2982 235.918 24.1349 235.292 23.8082C234.676 23.4722 234.196 23.0149 233.85 22.4362C233.514 21.8575 233.346 21.1995 233.346 20.4622C233.346 19.7155 233.51 19.0575 233.836 18.4882C234.172 17.9095 234.63 17.4569 235.208 17.1302C235.796 16.8035 236.464 16.6402 237.21 16.6402C237.938 16.6402 238.587 16.7989 239.156 17.1162C239.726 17.4335 240.174 17.8815 240.5 18.4602C240.827 19.0389 240.99 19.7202 240.99 20.5042C240.99 20.5789 240.986 20.6629 240.976 20.7562C240.976 20.8495 240.972 20.9382 240.962 21.0222H234.732V19.8602H240.038L239.352 20.2242C239.362 19.7949 239.273 19.4169 239.086 19.0902C238.9 18.7635 238.643 18.5069 238.316 18.3202C237.999 18.1335 237.63 18.0402 237.21 18.0402C236.781 18.0402 236.403 18.1335 236.076 18.3202C235.759 18.5069 235.507 18.7682 235.32 19.1042C235.143 19.4309 235.054 19.8182 235.054 20.2662V20.5462C235.054 20.9942 235.157 21.3909 235.362 21.7362C235.568 22.0815 235.857 22.3475 236.23 22.5342C236.604 22.7209 237.033 22.8142 237.518 22.8142C237.938 22.8142 238.316 22.7489 238.652 22.6182C238.988 22.4875 239.287 22.2822 239.548 22.0022L240.486 23.0802C240.15 23.4722 239.726 23.7755 239.212 23.9902C238.708 24.1955 238.13 24.2982 237.476 24.2982ZM246.913 16.6402C247.511 16.6402 248.043 16.7569 248.509 16.9902C248.985 17.2235 249.359 17.5829 249.629 18.0682C249.9 18.5442 250.035 19.1602 250.035 19.9162V24.2002H248.285V20.1402C248.285 19.4775 248.127 18.9829 247.809 18.6562C247.501 18.3295 247.067 18.1662 246.507 18.1662C246.097 18.1662 245.733 18.2502 245.415 18.4182C245.098 18.5862 244.851 18.8382 244.673 19.1742C244.505 19.5009 244.421 19.9162 244.421 20.4202V24.2002H242.671V16.7242H244.337V18.7402L244.043 18.1242C244.305 17.6482 244.683 17.2842 245.177 17.0322C245.681 16.7709 246.26 16.6402 246.913 16.6402ZM255.433 24.2982C254.714 24.2982 254.066 24.1395 253.487 23.8222C252.918 23.4955 252.47 23.0475 252.143 22.4782C251.816 21.9089 251.653 21.2369 251.653 20.4622C251.653 19.6875 251.816 19.0155 252.143 18.4462C252.47 17.8769 252.918 17.4335 253.487 17.1162C254.066 16.7989 254.714 16.6402 255.433 16.6402C256.058 16.6402 256.618 16.7802 257.113 17.0602C257.608 17.3309 258 17.7462 258.289 18.3062C258.578 18.8662 258.723 19.5849 258.723 20.4622C258.723 21.3302 258.583 22.0489 258.303 22.6182C258.023 23.1782 257.636 23.5982 257.141 23.8782C256.646 24.1582 256.077 24.2982 255.433 24.2982ZM255.643 22.8002C256.063 22.8002 256.436 22.7069 256.763 22.5202C257.099 22.3335 257.365 22.0629 257.561 21.7082C257.766 21.3535 257.869 20.9382 257.869 20.4622C257.869 19.9769 257.766 19.5615 257.561 19.2162C257.365 18.8615 257.099 18.5909 256.763 18.4042C256.436 18.2175 256.063 18.1242 255.643 18.1242C255.223 18.1242 254.845 18.2175 254.509 18.4042C254.182 18.5909 253.916 18.8615 253.711 19.2162C253.515 19.5615 253.417 19.9769 253.417 20.4622C253.417 20.9382 253.515 21.3535 253.711 21.7082C253.916 22.0629 254.182 22.3335 254.509 22.5202C254.845 22.7069 255.223 22.8002 255.643 22.8002ZM257.911 24.2002V22.4362L257.981 20.4482L257.841 18.4602V13.8122H259.577V24.2002H257.911ZM265.918 24.2002V14.4002H270.202C271.266 14.4002 272.199 14.6055 273.002 15.0162C273.804 15.4269 274.43 15.9962 274.878 16.7242C275.326 17.4522 275.55 18.3109 275.55 19.3002C275.55 20.2802 275.326 21.1389 274.878 21.8762C274.43 22.6042 273.804 23.1735 273.002 23.5842C272.199 23.9949 271.266 24.2002 270.202 24.2002H265.918ZM267.738 22.6602H270.118C270.855 22.6602 271.49 22.5202 272.022 22.2402C272.563 21.9602 272.978 21.5682 273.268 21.0642C273.566 20.5602 273.716 19.9722 273.716 19.3002C273.716 18.6189 273.566 18.0309 273.268 17.5362C272.978 17.0322 272.563 16.6402 272.022 16.3602C271.49 16.0802 270.855 15.9402 270.118 15.9402H267.738V22.6602ZM280.83 24.2982C279.999 24.2982 279.271 24.1349 278.646 23.8082C278.03 23.4722 277.549 23.0149 277.204 22.4362C276.868 21.8575 276.7 21.1995 276.7 20.4622C276.7 19.7155 276.863 19.0575 277.19 18.4882C277.526 17.9095 277.983 17.4569 278.562 17.1302C279.15 16.8035 279.817 16.6402 280.564 16.6402C281.292 16.6402 281.941 16.7989 282.51 17.1162C283.079 17.4335 283.527 17.8815 283.854 18.4602C284.181 19.0389 284.344 19.7202 284.344 20.5042C284.344 20.5789 284.339 20.6629 284.33 20.7562C284.33 20.8495 284.325 20.9382 284.316 21.0222H278.086V19.8602H283.392L282.706 20.2242C282.715 19.7949 282.627 19.4169 282.44 19.0902C282.253 18.7635 281.997 18.5069 281.67 18.3202C281.353 18.1335 280.984 18.0402 280.564 18.0402C280.135 18.0402 279.757 18.1335 279.43 18.3202C279.113 18.5069 278.861 18.7682 278.674 19.1042C278.497 19.4309 278.408 19.8182 278.408 20.2662V20.5462C278.408 20.9942 278.511 21.3909 278.716 21.7362C278.921 22.0815 279.211 22.3475 279.584 22.5342C279.957 22.7209 280.387 22.8142 280.872 22.8142C281.292 22.8142 281.67 22.7489 282.006 22.6182C282.342 22.4875 282.641 22.2822 282.902 22.0022L283.84 23.0802C283.504 23.4722 283.079 23.7755 282.566 23.9902C282.062 24.1955 281.483 24.2982 280.83 24.2982ZM287.876 24.2002L284.67 16.7242H286.49L289.248 23.3182H288.352L291.208 16.7242H292.888L289.682 24.2002H287.876ZM297.291 24.2982C296.46 24.2982 295.732 24.1349 295.107 23.8082C294.491 23.4722 294.01 23.0149 293.665 22.4362C293.329 21.8575 293.161 21.1995 293.161 20.4622C293.161 19.7155 293.324 19.0575 293.651 18.4882C293.987 17.9095 294.444 17.4569 295.023 17.1302C295.611 16.8035 296.278 16.6402 297.025 16.6402C297.753 16.6402 298.402 16.7989 298.971 17.1162C299.54 17.4335 299.988 17.8815 300.315 18.4602C300.642 19.0389 300.805 19.7202 300.805 20.5042C300.805 20.5789 300.8 20.6629 300.791 20.7562C300.791 20.8495 300.786 20.9382 300.777 21.0222H294.547V19.8602H299.853L299.167 20.2242C299.176 19.7949 299.088 19.4169 298.901 19.0902C298.714 18.7635 298.458 18.5069 298.131 18.3202C297.814 18.1335 297.445 18.0402 297.025 18.0402C296.596 18.0402 296.218 18.1335 295.891 18.3202C295.574 18.5069 295.322 18.7682 295.135 19.1042C294.958 19.4309 294.869 19.8182 294.869 20.2662V20.5462C294.869 20.9942 294.972 21.3909 295.177 21.7362C295.382 22.0815 295.672 22.3475 296.045 22.5342C296.418 22.7209 296.848 22.8142 297.333 22.8142C297.753 22.8142 298.131 22.7489 298.467 22.6182C298.803 22.4875 299.102 22.2822 299.363 22.0022L300.301 23.0802C299.965 23.4722 299.54 23.7755 299.027 23.9902C298.523 24.1955 297.944 24.2982 297.291 24.2982ZM302.486 24.2002V13.8122H304.236V24.2002H302.486ZM309.893 24.2982C309.127 24.2982 308.446 24.1349 307.849 23.8082C307.251 23.4722 306.78 23.0149 306.435 22.4362C306.089 21.8575 305.917 21.1995 305.917 20.4622C305.917 19.7155 306.089 19.0575 306.435 18.4882C306.78 17.9095 307.251 17.4569 307.849 17.1302C308.446 16.8035 309.127 16.6402 309.893 16.6402C310.667 16.6402 311.353 16.8035 311.951 17.1302C312.557 17.4569 313.029 17.9049 313.365 18.4742C313.71 19.0435 313.883 19.7062 313.883 20.4622C313.883 21.1995 313.71 21.8575 313.365 22.4362C313.029 23.0149 312.557 23.4722 311.951 23.8082C311.353 24.1349 310.667 24.2982 309.893 24.2982ZM309.893 22.8002C310.322 22.8002 310.705 22.7069 311.041 22.5202C311.377 22.3335 311.638 22.0629 311.825 21.7082C312.021 21.3535 312.119 20.9382 312.119 20.4622C312.119 19.9769 312.021 19.5615 311.825 19.2162C311.638 18.8615 311.377 18.5909 311.041 18.4042C310.705 18.2175 310.327 18.1242 309.907 18.1242C309.477 18.1242 309.095 18.2175 308.759 18.4042C308.432 18.5909 308.171 18.8615 307.975 19.2162C307.779 19.5615 307.681 19.9769 307.681 20.4622C307.681 20.9382 307.779 21.3535 307.975 21.7082C308.171 22.0629 308.432 22.3335 308.759 22.5202C309.095 22.7069 309.473 22.8002 309.893 22.8002ZM319.7 24.2982C319.094 24.2982 318.538 24.1582 318.034 23.8782C317.54 23.5982 317.143 23.1782 316.844 22.6182C316.555 22.0489 316.41 21.3302 316.41 20.4622C316.41 19.5849 316.55 18.8662 316.83 18.3062C317.12 17.7462 317.512 17.3309 318.006 17.0602C318.501 16.7802 319.066 16.6402 319.7 16.6402C320.438 16.6402 321.086 16.7989 321.646 17.1162C322.216 17.4335 322.664 17.8769 322.99 18.4462C323.326 19.0155 323.494 19.6875 323.494 20.4622C323.494 21.2369 323.326 21.9135 322.99 22.4922C322.664 23.0615 322.216 23.5049 321.646 23.8222C321.086 24.1395 320.438 24.2982 319.7 24.2982ZM315.556 26.9162V16.7242H317.222V18.4882L317.166 20.4762L317.306 22.4642V26.9162H315.556ZM319.504 22.8002C319.924 22.8002 320.298 22.7069 320.624 22.5202C320.96 22.3335 321.226 22.0629 321.422 21.7082C321.618 21.3535 321.716 20.9382 321.716 20.4622C321.716 19.9769 321.618 19.5615 321.422 19.2162C321.226 18.8615 320.96 18.5909 320.624 18.4042C320.298 18.2175 319.924 18.1242 319.504 18.1242C319.084 18.1242 318.706 18.2175 318.37 18.4042C318.034 18.5909 317.768 18.8615 317.572 19.2162C317.376 19.5615 317.278 19.9769 317.278 20.4622C317.278 20.9382 317.376 21.3535 317.572 21.7082C317.768 22.0629 318.034 22.3335 318.37 22.5202C318.706 22.7069 319.084 22.8002 319.504 22.8002ZM328.668 24.2982C327.837 24.2982 327.109 24.1349 326.484 23.8082C325.868 23.4722 325.387 23.0149 325.042 22.4362C324.706 21.8575 324.538 21.1995 324.538 20.4622C324.538 19.7155 324.701 19.0575 325.028 18.4882C325.364 17.9095 325.821 17.4569 326.4 17.1302C326.988 16.8035 327.655 16.6402 328.402 16.6402C329.13 16.6402 329.779 16.7989 330.348 17.1162C330.917 17.4335 331.365 17.8815 331.692 18.4602C332.019 19.0389 332.182 19.7202 332.182 20.5042C332.182 20.5789 332.177 20.6629 332.168 20.7562C332.168 20.8495 332.163 20.9382 332.154 21.0222H325.924V19.8602H331.23L330.544 20.2242C330.553 19.7949 330.465 19.4169 330.278 19.0902C330.091 18.7635 329.835 18.5069 329.508 18.3202C329.191 18.1335 328.822 18.0402 328.402 18.0402C327.973 18.0402 327.595 18.1335 327.268 18.3202C326.951 18.5069 326.699 18.7682 326.512 19.1042C326.335 19.4309 326.246 19.8182 326.246 20.2662V20.5462C326.246 20.9942 326.349 21.3909 326.554 21.7362C326.759 22.0815 327.049 22.3475 327.422 22.5342C327.795 22.7209 328.225 22.8142 328.71 22.8142C329.13 22.8142 329.508 22.7489 329.844 22.6182C330.18 22.4875 330.479 22.2822 330.74 22.0022L331.678 23.0802C331.342 23.4722 330.917 23.7755 330.404 23.9902C329.9 24.1955 329.321 24.2982 328.668 24.2982ZM333.863 24.2002V16.7242H335.529V18.7822L335.333 18.1802C335.557 17.6762 335.907 17.2935 336.383 17.0322C336.868 16.7709 337.47 16.6402 338.189 16.6402V18.3062C338.114 18.2875 338.044 18.2782 337.979 18.2782C337.914 18.2689 337.848 18.2642 337.783 18.2642C337.12 18.2642 336.593 18.4602 336.201 18.8522C335.809 19.2349 335.613 19.8089 335.613 20.5742V24.2002H333.863ZM348.315 24.3402C347.568 24.3402 346.873 24.2189 346.229 23.9762C345.594 23.7242 345.039 23.3742 344.563 22.9262C344.096 22.4689 343.732 21.9322 343.471 21.3162C343.21 20.7002 343.079 20.0282 343.079 19.3002C343.079 18.5722 343.21 17.9002 343.471 17.2842C343.732 16.6682 344.101 16.1362 344.577 15.6882C345.053 15.2309 345.608 14.8809 346.243 14.6382C346.878 14.3862 347.573 14.2602 348.329 14.2602C349.132 14.2602 349.864 14.4002 350.527 14.6802C351.19 14.9509 351.75 15.3569 352.207 15.8982L351.031 17.0042C350.676 16.6215 350.28 16.3369 349.841 16.1502C349.402 15.9542 348.926 15.8562 348.413 15.8562C347.9 15.8562 347.428 15.9402 346.999 16.1082C346.579 16.2762 346.21 16.5142 345.893 16.8222C345.585 17.1302 345.342 17.4942 345.165 17.9142C344.997 18.3342 344.913 18.7962 344.913 19.3002C344.913 19.8042 344.997 20.2662 345.165 20.6862C345.342 21.1062 345.585 21.4702 345.893 21.7782C346.21 22.0862 346.579 22.3242 346.999 22.4922C347.428 22.6602 347.9 22.7442 348.413 22.7442C348.926 22.7442 349.402 22.6509 349.841 22.4642C350.28 22.2682 350.676 21.9742 351.031 21.5822L352.207 22.7022C351.75 23.2342 351.19 23.6402 350.527 23.9202C349.864 24.2002 349.127 24.3402 348.315 24.3402ZM358.025 16.6402C358.622 16.6402 359.154 16.7569 359.621 16.9902C360.097 17.2235 360.47 17.5829 360.741 18.0682C361.011 18.5442 361.147 19.1602 361.147 19.9162V24.2002H359.397V20.1402C359.397 19.4775 359.238 18.9829 358.921 18.6562C358.613 18.3295 358.179 18.1662 357.619 18.1662C357.208 18.1662 356.844 18.2502 356.527 18.4182C356.209 18.5862 355.962 18.8382 355.785 19.1742C355.617 19.5009 355.533 19.9162 355.533 20.4202V24.2002H353.783V13.8122H355.533V18.7402L355.155 18.1242C355.416 17.6482 355.794 17.2842 356.289 17.0322C356.793 16.7709 357.371 16.6402 358.025 16.6402ZM367.973 24.2002V22.6882L367.875 22.3662V19.7202C367.875 19.2069 367.721 18.8102 367.413 18.5302C367.105 18.2409 366.638 18.0962 366.013 18.0962C365.593 18.0962 365.177 18.1615 364.767 18.2922C364.365 18.4229 364.025 18.6049 363.745 18.8382L363.059 17.5642C363.46 17.2562 363.936 17.0275 364.487 16.8782C365.047 16.7195 365.625 16.6402 366.223 16.6402C367.305 16.6402 368.141 16.9015 368.729 17.4242C369.326 17.9375 369.625 18.7355 369.625 19.8182V24.2002H367.973ZM365.621 24.2982C365.061 24.2982 364.571 24.2049 364.151 24.0182C363.731 23.8222 363.404 23.5562 363.171 23.2202C362.947 22.8749 362.835 22.4875 362.835 22.0582C362.835 21.6382 362.933 21.2602 363.129 20.9242C363.334 20.5882 363.665 20.3222 364.123 20.1262C364.58 19.9302 365.187 19.8322 365.943 19.8322H368.113V20.9942H366.069C365.471 20.9942 365.07 21.0922 364.865 21.2882C364.659 21.4749 364.557 21.7082 364.557 21.9882C364.557 22.3055 364.683 22.5575 364.935 22.7442C365.187 22.9309 365.537 23.0242 365.985 23.0242C366.414 23.0242 366.797 22.9262 367.133 22.7302C367.478 22.5342 367.725 22.2449 367.875 21.8622L368.169 22.9122C368.001 23.3509 367.697 23.6915 367.259 23.9342C366.829 24.1769 366.283 24.2982 365.621 24.2982ZM371.871 24.2002V13.8122H373.621V24.2002H371.871ZM375.918 24.2002V13.8122H377.668V24.2002H375.918ZM383.478 24.2982C382.648 24.2982 381.92 24.1349 381.294 23.8082C380.678 23.4722 380.198 23.0149 379.852 22.4362C379.516 21.8575 379.348 21.1995 379.348 20.4622C379.348 19.7155 379.512 19.0575 379.838 18.4882C380.174 17.9095 380.632 17.4569 381.21 17.1302C381.798 16.8035 382.466 16.6402 383.212 16.6402C383.94 16.6402 384.589 16.7989 385.158 17.1162C385.728 17.4335 386.176 17.8815 386.502 18.4602C386.829 19.0389 386.992 19.7202 386.992 20.5042C386.992 20.5789 386.988 20.6629 386.978 20.7562C386.978 20.8495 386.974 20.9382 386.964 21.0222H380.734V19.8602H386.04L385.354 20.2242C385.364 19.7949 385.275 19.4169 385.088 19.0902C384.902 18.7635 384.645 18.5069 384.318 18.3202C384.001 18.1335 383.632 18.0402 383.212 18.0402C382.783 18.0402 382.405 18.1335 382.078 18.3202C381.761 18.5069 381.509 18.7682 381.322 19.1042C381.145 19.4309 381.056 19.8182 381.056 20.2662V20.5462C381.056 20.9942 381.159 21.3909 381.364 21.7362C381.57 22.0815 381.859 22.3475 382.232 22.5342C382.606 22.7209 383.035 22.8142 383.52 22.8142C383.94 22.8142 384.318 22.7489 384.654 22.6182C384.99 22.4875 385.289 22.2822 385.55 22.0022L386.488 23.0802C386.152 23.4722 385.728 23.7755 385.214 23.9902C384.71 24.1955 384.132 24.2982 383.478 24.2982ZM392.915 16.6402C393.513 16.6402 394.045 16.7569 394.511 16.9902C394.987 17.2235 395.361 17.5829 395.631 18.0682C395.902 18.5442 396.037 19.1602 396.037 19.9162V24.2002H394.287V20.1402C394.287 19.4775 394.129 18.9829 393.811 18.6562C393.503 18.3295 393.069 18.1662 392.509 18.1662C392.099 18.1662 391.735 18.2502 391.417 18.4182C391.1 18.5862 390.853 18.8382 390.675 19.1742C390.507 19.5009 390.423 19.9162 390.423 20.4202V24.2002H388.673V16.7242H390.339V18.7402L390.045 18.1242C390.307 17.6482 390.685 17.2842 391.179 17.0322C391.683 16.7709 392.262 16.6402 392.915 16.6402ZM401.659 27.0142C400.968 27.0142 400.292 26.9209 399.629 26.7342C398.976 26.5569 398.439 26.2955 398.019 25.9502L398.803 24.6342C399.13 24.9049 399.54 25.1195 400.035 25.2782C400.539 25.4462 401.048 25.5302 401.561 25.5302C402.382 25.5302 402.984 25.3389 403.367 24.9562C403.75 24.5829 403.941 24.0182 403.941 23.2622V21.9322L404.081 20.2382L404.025 18.5442V16.7242H405.691V23.0662C405.691 24.4195 405.346 25.4135 404.655 26.0482C403.964 26.6922 402.966 27.0142 401.659 27.0142ZM401.435 23.8642C400.726 23.8642 400.082 23.7149 399.503 23.4162C398.934 23.1082 398.481 22.6835 398.145 22.1422C397.818 21.6009 397.655 20.9662 397.655 20.2382C397.655 19.5195 397.818 18.8895 398.145 18.3482C398.481 17.8069 398.934 17.3869 399.503 17.0882C400.082 16.7895 400.726 16.6402 401.435 16.6402C402.07 16.6402 402.639 16.7662 403.143 17.0182C403.647 17.2702 404.048 17.6622 404.347 18.1942C404.655 18.7262 404.809 19.4075 404.809 20.2382C404.809 21.0689 404.655 21.7549 404.347 22.2962C404.048 22.8282 403.647 23.2249 403.143 23.4862C402.639 23.7382 402.07 23.8642 401.435 23.8642ZM401.701 22.3802C402.14 22.3802 402.532 22.2915 402.877 22.1142C403.222 21.9275 403.488 21.6755 403.675 21.3582C403.871 21.0315 403.969 20.6582 403.969 20.2382C403.969 19.8182 403.871 19.4495 403.675 19.1322C403.488 18.8055 403.222 18.5582 402.877 18.3902C402.532 18.2129 402.14 18.1242 401.701 18.1242C401.262 18.1242 400.866 18.2129 400.511 18.3902C400.166 18.5582 399.895 18.8055 399.699 19.1322C399.512 19.4495 399.419 19.8182 399.419 20.2382C399.419 20.6582 399.512 21.0315 399.699 21.3582C399.895 21.6755 400.166 21.9275 400.511 22.1142C400.866 22.2915 401.262 22.3802 401.701 22.3802ZM411.506 24.2982C410.675 24.2982 409.947 24.1349 409.322 23.8082C408.706 23.4722 408.225 23.0149 407.88 22.4362C407.544 21.8575 407.376 21.1995 407.376 20.4622C407.376 19.7155 407.539 19.0575 407.866 18.4882C408.202 17.9095 408.659 17.4569 409.238 17.1302C409.826 16.8035 410.493 16.6402 411.24 16.6402C411.968 16.6402 412.616 16.7989 413.186 17.1162C413.755 17.4335 414.203 17.8815 414.53 18.4602C414.856 19.0389 415.02 19.7202 415.02 20.5042C415.02 20.5789 415.015 20.6629 415.006 20.7562C415.006 20.8495 415.001 20.9382 414.992 21.0222H408.762V19.8602H414.068L413.382 20.2242C413.391 19.7949 413.302 19.4169 413.116 19.0902C412.929 18.7635 412.672 18.5069 412.346 18.3202C412.028 18.1335 411.66 18.0402 411.24 18.0402C410.81 18.0402 410.432 18.1335 410.106 18.3202C409.788 18.5069 409.536 18.7682 409.35 19.1042C409.172 19.4309 409.084 19.8182 409.084 20.2662V20.5462C409.084 20.9942 409.186 21.3909 409.392 21.7362C409.597 22.0815 409.886 22.3475 410.26 22.5342C410.633 22.7209 411.062 22.8142 411.548 22.8142C411.968 22.8142 412.346 22.7489 412.682 22.6182C413.018 22.4875 413.316 22.2822 413.578 22.0022L414.516 23.0802C414.18 23.4722 413.755 23.7755 413.242 23.9902C412.738 24.1955 412.159 24.2982 411.506 24.2982Z" fill="#15172A"/>
</svg>
